Coordinates
version=1
nRows=14
nColumns=63
inDegrees=yes

Units are S.I. units (second, meters, Newtons, ...)
If the header above contains a line with 'inDegrees', this indicates whether rotational values are in degrees (yes) or radians (no).

endheader
time	pelvis_tilt	pelvis_list	pelvis_rotation	pelvis_tx	pelvis_ty	pelvis_tz	hip_flexion_r	hip_adduction_r	hip_rotation_r	knee_angle_r	knee_angle_r_beta	ankle_angle_r	subtalar_angle_r	mtp_angle_r	hip_flexion_l	hip_adduction_l	hip_rotation_l	knee_angle_l	knee_angle_l_beta	ankle_angle_l	subtalar_angle_l	mtp_angle_l	L5_S1_Flex_Ext	L5_S1_Lat_Bending	L5_S1_axial_rotation	L4_L5_Flex_Ext	L4_L5_Lat_Bending	L4_L5_axial_rotation	L3_L4_Flex_Ext	L3_L4_Lat_Bending	L3_L4_axial_rotation	L2_L3_Flex_Ext	L2_L3_Lat_Bending	L2_L3_axial_rotation	L1_L2_Flex_Ext	L1_L2_Lat_Bending	L1_L2_axial_rotation	L1_T12_Flex_Ext	L1_T12_Lat_Bending	L1_T12_axial_rotation	Abs_r3	Abs_r2	Abs_r1	Abs_t1	Abs_t2	neck_flexion	neck_bending	neck_rotation	arm_flex_r	arm_add_r	arm_rot_r	elbow_flex_r	pro_sup_r	wrist_flex_r	wrist_dev_r	arm_flex_l	arm_add_l	arm_rot_l	elbow_flex_l	pro_sup_l	wrist_flex_l	wrist_dev_l
0.000000	1.729538	-3.494924	90.304068	0.318567	1.055609	0.435669	2.544609	-4.731535	-9.983894	10.244403	0.178799	32.243803	15.364387	0.000000	2.791039	3.758424	7.091936	8.690596	0.151680	23.625322	-16.505493	0.000000	0.028323	-0.335307	-0.106301	0.052599	-0.445959	-0.112945	0.046532	-0.815266	-0.112945	0.032371	-0.815266	-0.093013	0.026301	-0.683759	-0.086370	0.016184	-0.519391	-0.079726	0.202309	-3.793064	-0.591214	0.000000	0.000000	18.012753	8.186659	-2.795004	-39.225548	-84.828619	-41.583503	10.296534	14.511401	-4.970335	4.953673	-21.827899	-83.002025	30.449281	3.921497	7.286942	-11.055364	-5.863603
0.016667	1.633776	-3.508973	89.759956	0.318862	1.055527	0.434583	2.558416	-4.836169	-9.146430	10.175757	0.177600	32.638584	15.387137	0.000000	3.042745	3.680520	4.489921	9.238143	0.161236	24.678718	-13.573246	0.000000	0.031541	-0.342292	-0.054844	0.058574	-0.455248	-0.058272	0.051818	-0.832249	-0.058272	0.036048	-0.832249	-0.047988	0.029289	-0.698002	-0.044561	0.018022	-0.530210	-0.041133	0.225292	-3.872076	-0.305026	0.000000	0.000000	18.792126	8.501636	-2.643685	-39.321998	-85.040971	-38.607591	10.061245	15.601384	-4.991884	4.647954	-24.611460	-82.974337	34.659255	3.239039	7.325032	-10.691077	-5.247444
0.033333	1.556650	-3.513396	89.298656	0.319110	1.055441	0.433641	2.561876	-4.919204	-8.413360	10.116396	0.176564	32.938232	15.358076	0.000000	3.203732	3.622938	2.434985	9.618596	0.167876	25.501694	-11.322463	0.000000	0.034450	-0.347499	-0.010708	0.063977	-0.462174	-0.011378	0.056597	-0.844909	-0.011378	0.039373	-0.844909	-0.009370	0.031990	-0.708620	-0.008701	0.019685	-0.538276	-0.008031	0.246071	-3.930977	-0.059556	0.000000	0.000000	19.372943	8.756169	-2.503530	-39.029505	-85.161031	-36.390529	9.888048	16.391907	-4.994877	4.481353	-26.883770	-82.935924	38.026670	2.684717	7.357612	-10.404361	-4.743665
0.050000	1.496874	-3.509280	88.913794	0.319315	1.055353	0.432833	2.556244	-4.982125	-7.775754	10.065261	0.175672	33.151471	15.282141	0.000000	3.284038	3.583294	0.876239	9.849605	0.171908	26.117962	-9.684903	0.000000	0.037056	-0.351032	0.026645	0.068816	-0.466873	0.028311	0.060879	-0.853499	0.028311	0.042351	-0.853499	0.023315	0.034410	-0.715825	0.021649	0.021174	-0.543749	0.019984	0.264685	-3.970945	0.148194	0.000000	0.000000	19.779315	8.954433	-2.373601	-38.400767	-85.200225	-34.849867	9.770738	16.914370	-4.981131	4.434482	-28.686493	-82.887914	40.631198	2.247029	7.384463	-10.187135	-4.343347
0.066667	1.453161	-3.497715	88.598996	0.319479	1.055264	0.432148	2.542775	-5.026415	-7.224684	10.021294	0.174905	33.287026	15.164272	0.000000	3.293702	3.559205	-0.237210	9.948821	0.173640	26.551233	-8.592324	0.000000	0.039364	-0.352996	0.057757	0.073104	-0.469484	0.061366	0.064672	-0.858274	0.061366	0.044990	-0.858274	0.050537	0.036554	-0.719829	0.046927	0.022493	-0.546790	0.043317	0.281176	-3.993158	0.321225	0.000000	0.000000	20.035355	9.100600	-2.252959	-37.488483	-85.169981	-33.903157	9.703109	17.200171	-4.952464	4.487953	-30.061295	-82.831434	42.552510	1.914472	7.405367	-10.031315	-4.037569
0.083333	1.424227	-3.479787	88.347886	0.319603	1.055178	0.431576	2.522724	-5.053558	-6.751220	9.983434	0.174244	33.353619	15.009410	0.000000	3.242761	3.548290	-0.956250	9.933894	0.173379	26.825219	-7.976485	0.000000	0.041381	-0.353494	0.083164	0.076849	-0.470147	0.088362	0.067986	-0.859485	0.088362	0.047295	-0.859485	0.072769	0.038427	-0.720845	0.067571	0.023645	-0.547562	0.062373	0.295583	-3.998794	0.462536	0.000000	0.000000	20.165171	9.198844	-2.140667	-36.345348	-85.081726	-33.467952	9.678956	17.280708	-4.910693	4.622378	-31.049840	-82.767613	43.870280	1.675544	7.420103	-9.928817	-3.817414
0.100000	1.408785	-3.456585	88.154093	0.319691	1.055095	0.431106	2.497348	-5.065037	-6.346435	9.950624	0.173671	33.359975	14.822492	0.000000	3.141252	3.548165	-1.331772	9.822473	0.171434	26.963632	-7.769145	0.000000	0.043112	-0.352631	0.103408	0.080064	-0.468999	0.109872	0.070829	-0.857387	0.109872	0.049273	-0.857387	0.090482	0.040034	-0.719085	0.084019	0.024634	-0.546226	0.077556	0.307947	-3.989033	0.575127	0.000000	0.000000	20.192877	9.253337	-2.035787	-35.024061	-84.946887	-33.461804	9.692075	17.187381	-4.857636	4.818369	-31.693792	-82.697577	44.664178	1.518741	7.428453	-9.871560	-3.673961
0.116667	1.405549	-3.429196	88.011241	0.319744	1.055018	0.430728	2.467901	-5.062338	-6.001399	9.921805	0.173168	33.314818	14.608458	0.000000	2.999214	3.556448	-1.414668	9.632210	0.168114	26.990184	-7.902061	0.000000	0.044563	-0.350511	0.119028	0.082758	-0.466180	0.126467	0.073212	-0.852233	0.126467	0.050931	-0.852233	0.104149	0.041381	-0.714763	0.096710	0.025463	-0.542942	0.089271	0.318308	-3.965054	0.661998	0.000000	0.000000	20.142582	9.268253	-1.937380	-33.577318	-84.776890	-33.802264	9.736258	16.951588	-4.795110	5.056538	-32.034817	-82.622454	45.013879	1.432562	7.430199	-9.851459	-3.598291
0.133333	1.413233	-3.398710	87.912956	0.319766	1.054950	0.430429	2.435638	-5.046942	-5.707185	9.895917	0.172716	33.226872	14.372249	0.000000	2.826684	3.570756	-1.255826	9.380754	0.163725	26.928586	-8.306994	0.000000	0.045739	-0.347239	0.130562	0.084941	-0.461827	0.138722	0.075144	-0.844276	0.138722	0.052275	-0.844276	0.114242	0.042473	-0.708089	0.106082	0.026135	-0.537873	0.097922	0.326706	-3.928033	0.726148	0.000000	0.000000	20.038398	9.247764	-1.844509	-32.057818	-84.583163	-34.406884	9.805302	16.604728	-4.724933	5.317496	-32.114578	-82.543372	44.999054	1.405503	7.425122	-9.860432	-3.581486
0.150000	1.430552	-3.366213	87.852865	0.319758	1.054891	0.430201	2.401815	-5.020335	-5.454862	9.871903	0.172297	33.104860	14.118802	0.000000	2.633700	3.588706	-0.906139	9.085756	0.158576	26.802550	-8.915701	0.000000	0.046645	-0.342917	0.138551	0.086624	-0.456080	0.147210	0.076633	-0.833770	0.147210	0.053311	-0.833770	0.121232	0.043315	-0.699277	0.112573	0.026653	-0.531179	0.103913	0.333181	-3.879151	0.770578	0.000000	0.000000	19.904435	9.196045	-1.756235	-30.518257	-84.377134	-35.193217	9.893000	16.178200	-4.648922	5.581856	-31.974741	-82.461458	44.699375	1.426061	7.413002	-9.890396	-3.614626
0.166667	1.456218	-3.332793	87.824593	0.319723	1.054845	0.430032	2.367688	-4.984000	-5.235503	9.848702	0.171892	32.957507	13.853058	0.000000	2.430299	3.607917	-0.416495	8.764865	0.152976	26.635787	-9.659941	0.000000	0.047288	-0.337652	0.143533	0.087819	-0.449077	0.152504	0.077689	-0.820967	0.152504	0.054045	-0.820967	0.125591	0.043912	-0.688540	0.116620	0.027020	-0.523023	0.107650	0.337773	-3.819586	0.798286	0.000000	0.000000	19.764805	9.117267	-1.671620	-29.011333	-84.170229	-36.078814	9.993148	15.703402	-4.568894	5.830229	-31.656971	-82.377841	44.194515	1.482735	7.393620	-9.933268	-3.688792
0.183333	1.491513	-3.289110	87.794757	0.319678	1.054817	0.429927	2.334079	-4.943259	-5.074503	9.838989	0.171723	32.779403	13.656454	0.000000	2.230554	3.610359	-0.026298	8.483807	0.148070	26.480490	-10.267708	0.000000	0.046273	-0.330426	0.152546	0.085933	-0.439467	0.162080	0.076021	-0.803398	0.162080	0.052885	-0.803398	0.133478	0.042969	-0.673805	0.123944	0.026440	-0.511830	0.114410	0.330520	-3.737848	0.848416	0.000000	0.000000	19.689712	9.015943	-1.574030	-27.770225	-83.970511	-37.335390	10.091734	15.997299	-4.516922	5.994236	-31.087821	-82.270523	43.022791	1.637281	7.410524	-9.983128	-3.905810
0.200000	1.530821	-3.257970	87.792252	0.319583	1.054806	0.429825	2.309859	-4.894484	-4.887782	9.815293	0.171309	32.606318	13.419400	0.000000	2.054354	3.617137	0.463193	8.199095	0.143101	26.379371	-10.903148	0.000000	0.046257	-0.322673	0.154612	0.085903	-0.429155	0.164275	0.075995	-0.784546	0.164275	0.052867	-0.784546	0.135286	0.042954	-0.657994	0.125622	0.026431	-0.499820	0.115959	0.330406	-3.650137	0.859906	0.000000	0.000000	19.707752	8.914891	-1.469522	-26.635307	-83.846940	-37.910464	10.172969	15.668734	-4.410626	6.046440	-30.576118	-82.187346	42.717738	1.682425	7.320114	-9.954960	-4.017718
0.216667	1.577236	-3.227823	87.803209	0.319460	1.054829	0.429749	2.286535	-4.837427	-4.693514	9.778914	0.170674	32.454123	13.199489	0.000000	1.901057	3.620542	0.996190	7.936488	0.138518	26.325786	-11.514584	0.000000	0.044813	-0.314079	0.156053	0.083221	-0.417725	0.165806	0.073623	-0.763652	0.165806	0.051216	-0.763652	0.136546	0.041613	-0.640470	0.126793	0.025606	-0.486509	0.117039	0.320092	-3.552928	0.867917	0.000000	0.000000	19.839549	8.793760	-1.379418	-25.781810	-83.766867	-38.285252	10.250638	15.232128	-4.300128	5.991089	-30.006718	-82.113399	42.656091	1.699521	7.395363	-9.941655	-4.143278
